<?xml version="1.0" encoding="utf-8"?>
<svg
	version="1.1"
	xmlns="http://www.w3.org/2000/svg"
	xmlns:xlink="http://www.w3.org/1999/xlink"
	x="0%" y="0%"
	width="100%" height="100%"
	viewBox="0 0 24.0 24.0"
	enable-background="new 0 0 24.0 24.0"
	xml:space="preserve">
	<path
		fill="#FFFFFF"
		stroke="#F9F9F9"
		fill-opacity="0.000"
		stroke-opacity="1.000"
		fill-rule="nonzero"
		stroke-width="2"
		stroke-linejoin="miter"
		stroke-linecap="square"
		d="M4.99,1.15L13.27,1.15A1.48 1.48 0 0 1 14.75,2.63L14.75,17.11A1.48 1.48 0 0 1 13.27,18.59L4.99,18.59A1.48 1.48 0 0 1 3.51,17.11L3.51,2.63A1.48 1.48 0 0 1 4.99,1.15zM8.59,7.17L8.59,21.44A1.59 1.59 0 0 0 10.18,23.02L18.23,23.02A1.59 1.59 0 0 0 19.82,21.44L19.82,7.17A1.59 1.59 0 0 0 18.23,5.59L10.18,5.59A1.59 1.59 0 0 0 8.59,7.17z"/>
</svg>