<?xml version="1.0" encoding="utf-8"?>
<svg
	version="1.1"
	xmlns="http://www.w3.org/2000/svg"
	xmlns:xlink="http://www.w3.org/1999/xlink"
	x="0%" y="0%"
	width="100%" height="100%"
	viewBox="0 0 24.0 24.0"
	enable-background="new 0 0 24.0 24.0"
	xml:space="preserve">
	<path
		fill="#FFFFFF"
		stroke="#000000"
		fill-opacity="1.000"
		stroke-opacity="1.000"
		fill-rule="nonzero"
		stroke-width="1"
		stroke-linejoin="miter"
		stroke-linecap="square"
		d="M18.26,18.52L1.73,12.73L6.80,4.49L15.02,2.50L19.92,10.07z"/>
	<path
		fill="#FFFFFF"
		stroke="#000000"
		fill-opacity="1.000"
		stroke-opacity="1.000"
		fill-rule="nonzero"
		stroke-width="1"
		stroke-linejoin="miter"
		stroke-linecap="square"
		d="M18.26,18.52L8.55,19.76L1.73,12.73L12.04,11.66z"/>
	<path
		fill="#000000"
		stroke="#000000"
		fill-opacity="1.000"
		stroke-opacity="1.000"
		fill-rule="nonzero"
		stroke-width="0"
		stroke-linejoin="miter"
		stroke-linecap="square"
		d="M13.74,18.00C13.17,17.80,12.82,17.35,12.95,16.98C13.07,16.62,13.63,16.49,14.20,16.69C14.76,16.88,15.12,17.34,14.99,17.70C14.86,18.06,14.30,18.20,13.74,18.00z"/>
	<path
		fill="#000000"
		stroke="#000000"
		fill-opacity="1.000"
		stroke-opacity="1.000"
		fill-rule="nonzero"
		stroke-width="0"
		stroke-linejoin="miter"
		stroke-linecap="square"
		d="M9.79,16.40C9.23,16.20,8.87,15.75,9.00,15.39C9.13,15.02,9.69,14.89,10.25,15.09C10.82,15.29,11.17,15.74,11.05,16.10C10.92,16.47,10.36,16.60,9.79,16.40z"/>
	<path
		fill="#000000"
		stroke="#000000"
		fill-opacity="1.000"
		stroke-opacity="1.000"
		fill-rule="nonzero"
		stroke-width="0"
		stroke-linejoin="miter"
		stroke-linecap="square"
		d="M5.58,14.71C5.01,14.51,4.66,14.06,4.78,13.69C4.91,13.33,5.47,13.20,6.04,13.40C6.60,13.59,6.96,14.05,6.83,14.41C6.70,14.77,6.14,14.91,5.58,14.71z"/>
	<path
		fill="#000000"
		stroke="#000000"
		fill-opacity="1.000"
		stroke-opacity="1.000"
		fill-rule="nonzero"
		stroke-width="0"
		stroke-linejoin="miter"
		stroke-linecap="square"
		d="M16.01,10.78C16.02,10.18,16.35,9.70,16.73,9.71C17.11,9.72,17.41,10.21,17.40,10.81C17.39,11.41,17.07,11.89,16.68,11.88C16.30,11.87,16.00,11.38,16.01,10.78z"/>
	<path
		fill="#000000"
		stroke="#000000"
		fill-opacity="1.000"
		stroke-opacity="1.000"
		fill-rule="nonzero"
		stroke-width="0"
		stroke-linejoin="miter"
		stroke-linecap="square"
		d="M11.32,9.88C11.03,10.40,10.52,10.68,10.19,10.49C9.85,10.30,9.82,9.73,10.11,9.20C10.40,8.68,10.91,8.41,11.24,8.60C11.58,8.78,11.61,9.36,11.32,9.88z"/>
	<path
		fill="#000000"
		stroke="#000000"
		fill-opacity="1.000"
		stroke-opacity="1.000"
		fill-rule="nonzero"
		stroke-width="0"
		stroke-linejoin="miter"
		stroke-linecap="square"
		d="M5.91,11.01C5.54,11.54,4.97,11.77,4.64,11.54C4.31,11.30,4.34,10.69,4.70,10.17C5.07,9.64,5.64,9.41,5.97,9.64C6.30,9.87,6.27,10.49,5.91,11.01z"/>
	<path
		fill="#000000"
		stroke="#000000"
		fill-opacity="1.000"
		stroke-opacity="1.000"
		fill-rule="nonzero"
		stroke-width="0"
		stroke-linejoin="miter"
		stroke-linecap="square"
		d="M12.76,5.37C12.47,5.89,11.96,6.16,11.62,5.97C11.29,5.79,11.25,5.21,11.55,4.69C11.84,4.17,12.35,3.89,12.68,4.08C13.02,4.27,13.05,4.84,12.76,5.37z"/>
	<path
		fill="#000000"
		stroke="#000000"
		fill-opacity="1.000"
		stroke-opacity="1.000"
		fill-rule="nonzero"
		stroke-width="0"
		stroke-linejoin="miter"
		stroke-linecap="square"
		d="M7.87,5.98C7.57,6.43,7.11,6.64,6.84,6.46C6.57,6.27,6.60,5.76,6.90,5.32C7.21,4.87,7.67,4.66,7.94,4.84C8.21,5.03,8.18,5.54,7.87,5.98z"/>
	<path
		fill="#000000"
		stroke="#000000"
		fill-opacity="1.000"
		stroke-opacity="1.000"
		fill-rule="nonzero"
		stroke-width="0"
		stroke-linejoin="miter"
		stroke-linecap="square"
		d="M9.10,8.04C8.79,8.48,8.33,8.69,8.06,8.51C7.79,8.32,7.83,7.81,8.14,7.36C8.46,6.92,8.92,6.71,9.19,6.90C9.45,7.09,9.42,7.60,9.10,8.04z"/>
	<path
		fill="#000000"
		stroke="#000000"
		fill-opacity="1.000"
		stroke-opacity="1.000"
		fill-rule="nonzero"
		stroke-width="1"
		stroke-linejoin="miter"
		stroke-linecap="square"
		d="M12.04,11.66L15.02,2.50"/>
</svg>