<?xml version="1.0" encoding="utf-8"?>
<svg
	version="1.1"
	xmlns="http://www.w3.org/2000/svg"
	xmlns:xlink="http://www.w3.org/1999/xlink"
	x="0%" y="0%"
	width="100%" height="100%"
	viewBox="0 0 24.0 24.0"
	enable-background="new 0 0 24.0 24.0"
	xml:space="preserve">
	<path
		fill="#FFFFFF"
		stroke="#FFFFFF"
		fill-opacity="0.000"
		stroke-opacity="1.000"
		fill-rule="nonzero"
		stroke-width="1"
		stroke-linejoin="miter"
		stroke-linecap="square"
		d="M18.01,6.33L12.14,14.59L6.45,6.39L9.98,6.33L9.81,0.57L14.39,0.57L14.39,6.33z"/>
	<path
		fill="#FFFFFF"
		stroke="#FFFFFF"
		fill-opacity="0.000"
		stroke-opacity="1.000"
		fill-rule="nonzero"
		stroke-width="1"
		stroke-linejoin="miter"
		stroke-linecap="square"
		d="M1.34,15.66L22.71,15.66A0.49 0.49 0 0 1 23.20,16.15L23.20,21.50A0.49 0.49 0 0 1 22.71,21.99L1.34,21.99A0.49 0.49 0 0 1 0.85,21.50L0.85,16.15A0.49 0.49 0 0 1 1.34,15.66z"/>
	<path
		fill="#FFFFFF"
		stroke="#FFFFFF"
		fill-opacity="0.000"
		stroke-opacity="1.000"
		fill-rule="nonzero"
		stroke-width="1"
		stroke-linejoin="miter"
		stroke-linecap="square"
		d="M4.00,16.93L14.91,16.93A0.49 0.49 0 0 1 15.40,17.42L15.40,19.98A0.49 0.49 0 0 1 14.91,20.47L4.00,20.47A0.49 0.49 0 0 1 3.51,19.98L3.51,17.42A0.49 0.49 0 0 1 4.00,16.93z"/>
</svg>