<?xml version="1.0" encoding="utf-8"?>
<svg
	version="1.1"
	xmlns="http://www.w3.org/2000/svg"
	xmlns:xlink="http://www.w3.org/1999/xlink"
	x="0%" y="0%"
	width="100%" height="100%"
	viewBox="0 0 24.0 24.0"
	enable-background="new 0 0 24.0 24.0"
	xml:space="preserve">
	<path
		fill="#FFFFFF"
		stroke="#FFFFFF"
		fill-opacity="0.004"
		stroke-opacity="1.000"
		fill-rule="nonzero"
		stroke-width="1"
		stroke-linejoin="miter"
		stroke-linecap="square"
		d="M5.52,3.72L18.22,3.72A1.74 1.74 0 0 1 19.96,5.46L19.96,19.00A1.74 1.74 0 0 1 18.22,20.74L5.52,20.74A1.74 1.74 0 0 1 3.78,19.00L3.78,5.46A1.74 1.74 0 0 1 5.52,3.72z"/>
	<path
		fill="#FFFFFF"
		stroke="#FFFFFF"
		fill-opacity="0.004"
		stroke-opacity="1.000"
		fill-rule="nonzero"
		stroke-width="1"
		stroke-linejoin="miter"
		stroke-linecap="square"
		d="M6.05,3.84L17.70,3.84L17.70,11.40L6.05,11.40z"/>
	<path
		fill="#FFFFFF"
		stroke="#FFFFFF"
		fill-opacity="0.004"
		stroke-opacity="1.000"
		fill-rule="nonzero"
		stroke-width="1"
		stroke-linejoin="miter"
		stroke-linecap="square"
		d="M6.27,15.66L17.48,15.66L17.48,20.60L6.27,20.60z"/>
	<path
		fill="#FFFFFF"
		stroke="#FFFFFF"
		fill-opacity="0.004"
		stroke-opacity="1.000"
		fill-rule="nonzero"
		stroke-width="1"
		stroke-linejoin="miter"
		stroke-linecap="square"
		d="M8.74,15.66L10.63,15.66L10.63,20.74L8.74,20.74z"/>
</svg>